<?xml version="1.0" standalone="no"?>
<!DOCTYPE svg PUBLIC "-//W3C//DTD SVG 20010904//EN"
 "http://www.w3.org/TR/2001/REC-SVG-20010904/DTD/svg10.dtd">
<svg version="1.0" xmlns="http://www.w3.org/2000/svg"
 width="400.000000pt" height="400.000000pt" viewBox="0 0 400.000000 400.000000"
 preserveAspectRatio="xMidYMid meet">
<metadata>
Created by potrace 1.11, written by Peter Selinger 2001-2013
</metadata>
<g transform="translate(0.000000,400.000000) scale(0.100000,-0.100000)"
fill="#000000" stroke="none">
<path d="M1890 3030 c-8 -5 -33 -10 -54 -10 -22 0 -53 -4 -70 -10 -17 -5 -43
-12 -58 -15 -16 -3 -28 -10 -28 -16 0 -17 -26 -39 -36 -29 -5 5 -35 6 -67 3
-55 -6 -57 -7 -57 -35 0 -24 -5 -29 -30 -34 -16 -4 -30 -13 -30 -20 0 -8 -9
-14 -20 -14 -11 0 -20 5 -20 10 0 19 -18 10 -25 -12 -4 -14 -8 -18 -12 -10 -8
19 -23 14 -23 -8 0 -11 5 -20 11 -20 6 0 9 -6 6 -12 -2 -7 -11 -12 -21 -10
-19 3 -22 -14 -3 -21 8 -4 9 -6 0 -6 -6 -1 -19 6 -28 15 -20 20 -33 11 -15
-11 8 -10 9 -15 1 -15 -6 0 -11 5 -11 10 0 6 -4 10 -10 10 -5 0 -10 -9 -10
-21 0 -26 -26 -53 -41 -43 -8 5 -9 3 -4 -7 7 -12 6 -12 -7 -1 -8 7 -36 13 -62
14 l-46 2 0 38 c0 21 -4 38 -10 38 -5 0 -10 -9 -10 -20 0 -11 -4 -20 -10 -20
-5 0 -10 9 -10 20 0 18 -6 21 -42 21 -68 -1 -94 3 -110 16 -8 7 -19 9 -23 5
-5 -4 -4 -1 0 7 6 11 4 13 -8 8 -11 -4 -14 -2 -10 9 3 7 0 14 -7 14 -6 0 -8 5
-5 10 3 6 -3 10 -14 10 -13 0 -21 -7 -21 -16 0 -14 -2 -15 -17 -3 -11 10 -14
10 -9 2 4 -7 2 -13 -3 -13 -6 0 -11 7 -11 15 0 8 -5 15 -11 15 -5 0 -7 -4 -4
-10 8 -12 -5 -13 -24 -1 -23 15 -43 -15 -43 -62 1 -23 6 -43 11 -45 6 -2 11
-11 11 -21 0 -9 9 -23 20 -31 11 -8 20 -20 20 -28 0 -24 29 -44 54 -38 17 4
26 1 32 -12 10 -23 11 -29 13 -51 1 -14 11 -21 41 -26 22 -4 40 -11 40 -16 0
-5 9 -9 20 -9 11 0 20 -7 20 -15 0 -8 -4 -15 -10 -15 -5 0 -10 -5 -10 -11 0
-7 11 -9 27 -6 16 3 32 -1 40 -9 8 -8 10 -14 4 -14 -6 0 -11 -11 -11 -25 0
-14 5 -25 10 -25 6 0 10 9 10 20 0 11 5 20 10 20 6 0 10 -16 10 -35 0 -19 -4
-35 -10 -35 -5 0 -10 5 -10 10 0 6 -4 10 -10 10 -5 0 -10 -7 -10 -15 0 -8 -4
-15 -10 -15 -5 0 -10 -13 -10 -30 0 -16 5 -30 10 -30 6 0 10 -9 10 -20 0 -11
-4 -20 -10 -20 -5 0 -10 -7 -10 -15 0 -8 5 -15 10 -15 6 0 10 -4 10 -8 0 -5
-14 -7 -30 -4 -34 5 -41 -13 -9 -23 16 -5 18 -9 9 -15 -8 -5 -10 -17 -6 -33 4
-18 1 -31 -11 -43 -13 -12 -14 -19 -5 -22 8 -2 12 -31 12 -92 0 -61 4 -90 13
-93 6 -3 -3 -3 -20 0 -21 3 -33 1 -33 -6 0 -6 5 -11 10 -11 6 0 10 -13 10 -30
0 -16 5 -30 10 -30 6 0 10 9 10 20 0 11 5 20 11 20 7 0 8 -7 4 -17 -15 -35
-17 -63 -6 -63 6 0 11 -9 11 -19 0 -11 5 -21 12 -23 7 -3 11 -22 10 -46 -1
-23 3 -42 8 -42 6 0 10 -9 10 -19 0 -11 4 -21 9 -23 4 -2 12 -13 15 -25 6 -17
3 -23 -8 -23 -9 0 -16 5 -16 10 0 6 -4 10 -10 10 -5 0 -10 -11 -10 -25 0 -31
-45 -79 -65 -71 -8 3 -15 1 -15 -5 0 -13 -58 -69 -71 -69 -5 0 -9 -6 -9 -14 0
-25 -31 -28 -51 -5 -11 12 -22 19 -26 16 -3 -4 4 -15 15 -26 23 -19 29 -41 12
-41 -5 0 -10 -10 -10 -22 0 -19 -2 -20 -10 -8 -7 11 -10 -3 -10 -47 0 -44 4
-63 13 -63 8 0 7 -4 -3 -10 -25 -17 8 -32 50 -23 19 4 54 7 78 7 41 0 55 9 30
19 -7 3 -3 6 10 6 12 1 22 6 22 12 0 6 9 8 20 4 13 -4 20 -2 20 7 0 17 62 39
128 45 51 5 73 22 30 24 -19 1 -18 2 6 9 16 5 33 14 37 21 9 14 79 -53 79 -76
0 -8 3 -14 8 -14 24 4 32 -4 32 -32 0 -25 3 -29 19 -24 11 3 26 -1 35 -10 9
-9 20 -14 26 -10 5 3 7 0 4 -8 -4 -10 3 -14 22 -14 16 0 30 -6 32 -12 2 -6 8
-9 13 -5 5 3 9 -4 9 -16 0 -17 4 -20 20 -15 14 5 20 2 20 -10 0 -11 6 -14 25
-9 16 4 25 2 25 -6 0 -6 4 -8 10 -5 5 3 7 0 4 -9 -5 -12 5 -17 45 -22 28 -4
51 -10 51 -13 0 -4 30 -8 66 -8 43 0 69 -5 74 -13 6 -10 36 -13 111 -11 74 1
105 -2 111 -11 8 -10 11 -10 15 0 2 6 13 12 23 12 10 0 20 4 22 10 2 5 26 11
53 14 28 2 51 5 53 6 1 1 5 3 10 4 4 1 17 7 30 14 19 11 25 10 38 -3 17 -16
54 -21 54 -6 0 5 -6 12 -12 14 -7 3 -3 6 10 6 13 1 22 7 22 17 0 11 6 14 20 9
14 -5 20 -2 20 10 0 12 6 15 20 10 11 -4 20 -2 20 4 0 6 13 8 33 6 29 -5 30
-5 10 6 -13 7 -23 16 -23 22 0 5 6 4 14 -2 12 -10 20 -9 40 4 14 10 26 22 26
27 0 6 14 23 30 38 17 15 30 31 30 35 0 13 30 36 40 30 5 -3 20 3 32 15 21 19
21 21 3 15 -16 -6 -17 -5 -5 4 8 6 23 8 33 5 11 -3 17 0 17 10 0 21 6 20 60
-9 l45 -24 -32 -1 c-18 0 -33 5 -33 10 0 6 -4 10 -10 10 -15 0 -12 -29 4 -46
16 -16 43 -19 48 -5 7 20 118 10 118 -10 0 -5 9 -9 20 -9 11 0 20 -4 20 -10 0
-5 9 -10 19 -10 11 0 27 -7 35 -16 9 -8 20 -13 24 -10 5 3 25 1 46 -5 65 -18
76 -8 76 72 0 44 -4 68 -10 64 -6 -3 -10 3 -10 14 0 12 -4 21 -10 21 -17 0
-11 22 12 41 11 11 18 22 14 26 -3 4 -16 -5 -27 -19 l-21 -26 -34 34 c-19 18
-34 38 -34 43 0 5 -9 13 -20 16 -11 3 -20 11 -20 16 0 5 -6 9 -13 9 -8 0 -35
20 -61 45 -40 37 -45 45 -27 45 16 0 21 6 21 24 0 13 -6 27 -12 29 -10 4 -10
6 0 6 8 1 12 24 12 80 0 49 4 81 11 83 6 2 12 18 12 35 1 21 5 29 11 23 13
-13 46 -13 46 -1 0 5 -6 12 -12 14 -10 4 -9 8 2 16 8 5 11 13 8 17 -4 3 -14
-1 -23 -10 -20 -20 -26 -20 -19 -2 3 8 0 17 -6 21 -9 6 -9 10 1 16 10 6 11 9
2 9 -7 0 -13 11 -13 25 0 14 5 25 10 25 6 0 10 18 10 39 0 22 5 41 12 43 10 4
8 9 -3 21 -9 9 -19 13 -23 10 -16 -17 -3 16 14 35 11 12 20 28 20 37 0 8 5 15
10 15 6 0 10 5 10 10 0 14 -37 12 -43 -2 -3 -7 -8 2 -12 20 -4 17 -11 32 -15
32 -7 0 -9 10 -11 70 -1 25 -7 40 -14 40 -17 0 -28 31 -15 44 7 7 10 3 10 -12
0 -12 5 -22 10 -22 6 0 10 7 10 15 0 8 5 15 10 15 6 0 10 9 10 20 0 13 -7 20
-20 20 -11 0 -20 6 -20 14 0 16 27 29 43 19 6 -4 8 0 4 10 -3 10 -2 17 3 17 6
0 10 -4 10 -10 0 -5 5 -10 10 -10 6 0 10 9 10 20 0 11 5 20 10 20 6 0 10 5 10
11 0 16 26 39 44 39 9 0 16 9 16 21 0 11 5 17 10 14 6 -3 10 -1 10 4 0 6 14
11 31 11 16 0 28 4 25 9 -3 5 5 11 19 13 14 3 25 1 25 -4 0 -5 5 -6 10 -3 6 4
8 11 5 16 -4 5 9 10 27 10 18 1 25 3 15 6 -14 4 -11 10 20 39 21 18 34 34 28
34 -5 0 -3 5 5 10 13 9 13 10 0 10 -12 0 -12 2 -1 9 10 7 11 13 1 31 -8 15 -8
20 -1 16 6 -4 11 -1 11 8 0 8 6 16 13 19 15 5 8 13 -22 22 -16 5 -21 4 -17 -4
4 -6 3 -11 -1 -11 -7 0 -33 51 -37 72 0 3 -5 10 -10 15 -5 5 -6 2 -1 -5 5 -10
2 -13 -11 -10 -12 2 -18 11 -16 22 3 15 -1 18 -25 13 -15 -3 -35 -1 -45 4 -18
10 -48 2 -48 -13 0 -17 -28 -38 -43 -32 -9 3 -16 -3 -20 -15 -3 -12 -1 -19 3
-16 4 3 6 -4 3 -15 -3 -11 -9 -17 -14 -14 -5 3 -8 -5 -6 -17 2 -19 -5 -24 -38
-32 -22 -6 -42 -14 -45 -18 -3 -5 -22 -15 -43 -24 -20 -8 -37 -22 -37 -30 0
-9 -8 -14 -22 -12 -18 1 -22 -3 -20 -18 2 -16 1 -17 -7 -6 -8 12 -14 13 -36 3
-33 -15 -28 -17 -66 20 -22 19 -29 33 -21 35 26 10 10 23 -29 23 -24 0 -38 4
-34 10 3 6 -1 10 -9 10 -9 0 -16 6 -16 13 -1 15 -43 47 -70 52 -23 4 -59 24
-46 25 16 0 -29 37 -74 60 -28 14 -46 18 -52 12 -13 -13 -38 -4 -38 14 0 16
-17 19 -22 3 -5 -15 -38 0 -38 18 0 12 -9 14 -42 9 -24 -3 -37 -3 -30 0 30 14
7 23 -48 19 -47 -3 -60 -1 -60 11 0 8 -4 14 -10 14 -5 0 -10 -7 -10 -15 0 -12
-16 -15 -80 -15 -64 0 -80 3 -80 15 0 17 -9 19 -30 5z m1152 -359 c-4 -37 -6
-40 -43 -46 -36 -6 -39 -9 -39 -41 0 -31 -3 -34 -29 -34 -20 0 -30 -6 -34 -20
-3 -11 -12 -20 -21 -20 -19 0 -22 26 -3 33 7 3 5 6 -6 6 -14 1 -16 6 -11 28 8
32 30 57 43 49 11 -7 33 18 24 27 -3 4 -1 7 6 7 8 0 11 -7 7 -15 -3 -9 0 -15
9 -15 8 0 15 9 15 19 0 11 9 23 20 26 11 3 20 10 20 15 0 5 10 11 23 13 12 2
22 5 22 6 0 0 -1 -17 -3 -38z m-1786 -8 c-10 -10 -19 5 -10 18 6 11 8 11 12 0
2 -7 1 -15 -2 -18z m-292 2 c-5 -13 1 -17 22 -14 4 0 11 -5 15 -13 7 -11 11
-10 18 2 8 12 13 11 30 -9 25 -29 25 -28 6 -47 -8 -9 -15 -11 -15 -5 0 5 -8
12 -18 15 -10 4 -33 20 -51 38 -24 23 -29 33 -19 39 18 12 18 11 12 -6z m156
-59 c-7 -7 -13 -7 -20 0 -6 6 -3 10 10 10 13 0 16 -4 10 -10z m-13 -38 c-3 -8
-6 -5 -6 6 -1 11 2 17 5 13 3 -3 4 -12 1 -19z m33 -40 c-24 -22 -48 -25 -31
-4 9 11 9 15 -1 19 -7 3 1 4 19 4 30 -2 31 -3 13 -19z m-88 -210 c-9 -9 -12
-7 -12 12 0 19 3 21 12 12 9 -9 9 -15 0 -24z m98 -838 c8 -5 11 -12 7 -16 -4
-4 -15 0 -24 9 -18 18 -8 23 17 7z m-57 -17 c-7 -2 -19 -2 -25 0 -7 3 -2 5 12
5 14 0 19 -2 13 -5z m1830 0 c-26 -5 -29 -18 -9 -39 11 -11 16 -11 20 -1 4 7
8 8 11 2 19 -36 25 -40 36 -25 8 11 12 12 16 3 2 -7 14 -13 26 -13 18 0 19 -2
7 -10 -13 -9 -8 -14 11 -12 4 1 5 -8 2 -18 -4 -16 0 -20 23 -20 28 -1 28 -1
10 -15 -25 -19 -44 -19 -63 0 -9 9 -23 13 -34 10 -11 -4 -19 -2 -19 4 0 6 -9
11 -20 11 -11 0 -20 5 -20 10 0 6 -9 10 -20 10 -11 0 -20 7 -20 16 0 11 -6 14
-22 10 -13 -3 -17 -3 -10 0 6 3 12 14 12 25 0 10 5 19 10 19 6 0 10 9 10 20 0
16 6 20 33 19 23 -1 26 -3 10 -6z m-1799 -45 c5 -10 7 -10 12 0 3 6 14 12 25
12 16 0 17 -3 7 -25 -6 -14 -14 -25 -18 -25 -9 0 -50 36 -50 44 0 11 18 6 24
-6z m-84 -18 c0 -5 -4 -10 -10 -10 -5 0 -10 5 -10 10 0 6 5 10 10 10 6 0 10
-4 10 -10z m-15 -20 c11 -5 14 -9 8 -9 -7 -1 -13 -10 -13 -20 0 -11 6 -22 13
-24 6 -3 -4 -5 -23 -5 -19 0 -29 2 -22 5 6 2 12 16 12 29 0 14 -4 23 -8 20 -4
-2 -14 -1 -22 5 -20 12 27 11 55 -1z m80 -4 c12 -12 12 -15 -1 -20 -14 -5 -44
14 -44 28 0 12 32 6 45 -8z m-125 -12 c0 -4 -7 -12 -16 -19 -15 -10 -15 -13 1
-28 9 -9 14 -17 12 -17 -3 0 -14 -3 -24 -6 -15 -5 -15 -4 -3 5 10 7 11 11 3
11 -7 0 -13 9 -13 20 0 11 5 20 11 20 5 0 7 5 4 10 -3 6 1 10 9 10 9 0 16 -3
16 -6z m-70 -61 c0 -17 -19 -37 -27 -29 -4 5 -2 11 6 14 11 4 11 6 0 13 -11 7
-10 9 4 9 9 0 17 -3 17 -7z m2220 -23 c-19 -13 -30 -13 -30 0 0 6 10 10 23 10
18 0 19 -2 7 -10z m3 -37 c-7 -2 -19 -2 -25 0 -7 3 -2 5 12 5 14 0 19 -2 13
-5z"/>
<path d="M997 2618 c6 -11 43 -10 43 1 0 5 -11 8 -24 7 -13 0 -22 -4 -19 -8z"/>
<path d="M2980 1364 c0 -10 31 -36 37 -31 3 3 -2 13 -10 22 -16 15 -27 19 -27
9z"/>
<path d="M2280 3020 c0 -5 9 -10 20 -10 11 0 20 5 20 10 0 6 -9 10 -20 10 -11
0 -20 -4 -20 -10z"/>
<path d="M2600 2860 c0 -5 5 -10 10 -10 6 0 10 5 10 10 0 6 -4 10 -10 10 -5 0
-10 -4 -10 -10z"/>
<path d="M2920 2780 c0 -5 5 -10 10 -10 6 0 10 5 10 10 0 6 -4 10 -10 10 -5 0
-10 -4 -10 -10z"/>
<path d="M940 2480 c0 -5 5 -10 10 -10 6 0 10 5 10 10 0 6 -4 10 -10 10 -5 0
-10 -4 -10 -10z"/>
<path d="M980 2280 c0 -11 5 -20 10 -20 6 0 10 9 10 20 0 11 -4 20 -10 20 -5
0 -10 -9 -10 -20z"/>
<path d="M940 2230 c0 -5 5 -10 10 -10 6 0 10 5 10 10 0 6 -4 10 -10 10 -5 0
-10 -4 -10 -10z"/>
<path d="M960 2164 c0 -20 29 -49 38 -39 4 4 1 10 -5 12 -7 3 -13 13 -13 24 0
10 -4 19 -10 19 -5 0 -10 -7 -10 -16z"/>
<path d="M940 1810 c0 -53 3 -58 26 -36 16 17 19 46 4 46 -5 0 -10 9 -10 20 0
11 -4 20 -10 20 -5 0 -10 -22 -10 -50z"/>
<path d="M3000 1800 c0 -13 7 -20 20 -20 13 0 20 7 20 20 0 13 -7 20 -20 20
-13 0 -20 -7 -20 -20z"/>
<path d="M840 1430 c0 -11 5 -20 10 -20 6 0 10 9 10 20 0 11 -4 20 -10 20 -5
0 -10 -9 -10 -20z"/>
<path d="M1240 1270 c0 -11 5 -20 10 -20 6 0 10 9 10 20 0 11 -4 20 -10 20 -5
0 -10 -9 -10 -20z"/>
<path d="M2980 1180 c0 -5 5 -10 10 -10 6 0 10 5 10 10 0 6 -4 10 -10 10 -5 0
-10 -4 -10 -10z"/>
</g>
</svg>
